# xmcd
#
# Track frame offsets:
#	150
#	16445
#	34022
#	49677
#	63740
#	78115
#	94550
#	111902
#	125235
#	140780
#
# Disc length: 2077 seconds
#
# Revision: 3
# Processed by: cddbd v1.4PL0 Copyright (c) Steve Scherf et al.
# Submitted via: CDmax 1.8
#
DISCID=89081b0a
DTITLE=Doug Stone - Greatest Hits Volume 1
DYEAR=1900
DGENRE=Country
TTITLE0=Little Houses
TTITLE1=Too Busy Being In Love
TTITLE2=A Jukebox With A Country Song
TTITLE3=Made For Lovin You
TTITLE4=Why Didn't I Think Of That
TTITLE5=In A Different Light
TTITLE6=Come In Out Of The Pain
TTITLE7=Warning Labels
TTITLE8=I Thought It Was You
TTITLE9=I'd Be Better Off (In A Pine Box)
EXTD=
EXTT0=
EXTT1=
EXTT2=
EXTT3=
EXTT4=
EXTT5=
EXTT6=
EXTT7=
EXTT8=
EXTT9=
PLAYORDER=
